<svg width="106" height="100" viewBox="0 0 106 100" fill="none" xmlns="http://www.w3.org/2000/svg">
<path fill-rule="evenodd" clip-rule="evenodd" d="M53 100C82.2711 100 106 77.6142 106 50C106 22.3858 82.2711 0 53 0C23.7289 0 0 22.3858 0 50C0 77.6142 23.7289 100 53 100ZM45.5938 35.1719C45.3438 35.1719 44.8594 35.2344 44.1406 35.3594C43.4531 35.4531 42.6406 35.5781 41.7031 35.7344C40.7656 35.8906 39.7812 36.0781 38.75 36.2969C37.7188 36.4844 36.75 36.6562 35.8438 36.8125C34.9375 36.9688 34.1562 37.1094 33.5 37.2344C32.8125 37.3281 32.3594 37.375 32.1406 37.375C30.0469 37.375 29 36.2812 29 34.0938C29 33.5 29.0625 32.9219 29.1875 32.3594C29.2812 31.7656 29.4688 31.2344 29.75 30.7656C30.0312 30.2656 30.4062 29.8438 30.875 29.5C31.3438 29.1562 31.9375 28.9219 32.6562 28.7969C36.3125 28.2344 39.9531 27.6406 43.5781 27.0156C47.2031 26.3906 50.8594 25.7344 54.5469 25.0469C55.3594 24.8906 56.0938 24.75 56.75 24.625C57.4062 24.4688 58.1406 24.2656 58.9531 24.0156C59.8281 23.7656 60.7812 23.5312 61.8125 23.3125C62.8438 23.0625 63.875 22.8438 64.9062 22.6562C65.9688 22.4688 66.9844 22.3125 67.9531 22.1875C68.9531 22.0625 69.8594 22 70.6719 22C71.6719 22 72.4219 22.3281 72.9219 22.9844C73.4531 23.6094 73.7188 24.5 73.7188 25.6562C73.7188 26.25 73.6719 26.8281 73.5781 27.3906C73.4844 27.9219 73.3125 28.4062 73.0625 28.8438C72.8125 29.2812 72.4688 29.6406 72.0312 29.9219C71.5938 30.2031 71.0312 30.375 70.3438 30.4375C68.5625 30.6875 66.6562 31 64.625 31.375C62.5938 31.7188 60.8281 32.1094 59.3281 32.5469C58.7031 32.7344 58.2344 33.0469 57.9219 33.4844C57.6094 33.8906 57.4062 34.4062 57.3125 35.0312C57.2188 35.625 57.1562 36.2344 57.125 36.8594V38.5938C57.125 39.9062 57.1719 41.2188 57.2656 42.5312C57.3906 43.8438 57.5 45.1562 57.5938 46.4688C57.875 50.9688 58.2969 55.4219 58.8594 59.8281C59.4531 64.2344 60.0938 68.6875 60.7812 73.1875C60.8438 73.3438 60.875 73.5 60.875 73.6562V74.125C60.875 75.8438 59.9062 77.0625 57.9688 77.7812L55.8594 78.4375C55.2969 78.625 54.75 78.7188 54.2188 78.7188C53.4062 78.7188 52.75 78.4531 52.25 77.9219C51.75 77.4219 51.4219 76.6719 51.2656 75.6719C50.3906 70.2969 49.625 64.9531 48.9688 59.6406C48.3125 54.2969 47.8906 48.9219 47.7031 43.5156C47.6406 42.6406 47.5938 41.6875 47.5625 40.6562C47.5312 39.625 47.5156 38.5625 47.5156 37.4688C47.5156 35.9375 46.875 35.1719 45.5938 35.1719ZM70 72.5C70 73.8807 68.8807 75 67.5 75C66.1193 75 65 73.8807 65 72.5C65 71.1193 66.1193 70 67.5 70C68.8807 70 70 71.1193 70 72.5Z" fill="white"/>
</svg>
